<svg width="22" height="22" viewBox="0 0 22 22" fill="none" xmlns="http://www.w3.org/2000/svg">
<path d="M3.66665 2.75H4.58331C5.54931 2.75 6.34159 3.49837 6.41161 4.44658L6.41665 4.58333V17.4167C6.41665 18.3827 5.66828 19.1749 4.72007 19.245L4.58331 19.25H3.66665C2.70064 19.25 1.90837 18.5016 1.83835 17.5534L1.83331 17.4167V4.58333C1.83331 3.61733 2.58168 2.82506 3.52989 2.75503L3.66665 2.75ZM9.16665 2.75H10.0833C11.0493 2.75 11.8416 3.49837 11.9116 4.44658L11.9166 4.58333V17.4167C11.9166 18.3827 11.1683 19.1749 10.2201 19.245L10.0833 19.25H9.16665C8.20064 19.25 7.40837 18.5016 7.33835 17.5534L7.33331 17.4167V4.58333C7.33331 3.61733 8.08168 2.82506 9.02989 2.75503L9.16665 2.75ZM15.5598 4.58379C16.3293 4.58379 17.0339 5.07018 17.2923 5.8175L17.3353 5.96063L20.0991 16.7278C20.3397 17.6632 19.8119 18.617 18.9104 18.9202L18.7791 18.959L17.8908 19.1872C17.7387 19.2257 17.5847 19.245 17.4343 19.245C16.6656 19.245 15.9602 18.7578 15.7027 18.0103L15.6597 17.8672L12.895 7.10096C12.6553 6.16471 13.1823 5.21175 14.0845 4.9086L14.2159 4.86979L15.1033 4.64154C15.2554 4.60212 15.4094 4.58379 15.5598 4.58379ZM4.58331 4.125H3.66665C3.44176 4.125 3.25453 4.28796 3.2157 4.50123L3.20831 4.58333V17.4167C3.20831 17.6407 3.37055 17.8286 3.58429 17.8676L3.66665 17.875H4.58331C4.8082 17.875 4.99543 17.712 5.03426 17.4988L5.04165 17.4167V4.58333C5.04165 4.35926 4.87941 4.1714 4.66567 4.13242L4.58331 4.125ZM10.0833 4.125H9.16665C8.94176 4.125 8.75453 4.28796 8.7157 4.50123L8.70831 4.58333V17.4167C8.70831 17.6407 8.87055 17.8286 9.08429 17.8676L9.16665 17.875H10.0833C10.3082 17.875 10.4954 17.712 10.5342 17.4988L10.5416 17.4167V4.58333C10.5416 4.35926 10.3794 4.1714 10.1656 4.13242L10.0833 4.125ZM15.5607 5.95879L15.5026 5.96234L15.4452 5.97346L14.5578 6.20079C14.3974 6.24204 14.3131 6.35021 14.2764 6.41254C14.2478 6.46094 14.2069 6.55158 14.2128 6.66804L14.2269 6.75996L16.9916 17.5253C17.0521 17.7618 17.2638 17.87 17.4343 17.87L17.4916 17.8664L17.5489 17.8553L18.4372 17.627C18.6555 17.5717 18.7964 17.367 18.7806 17.151L18.7672 17.0697L16.0034 6.30254C15.942 6.06696 15.7312 5.95879 15.5607 5.95879Z" fill="white"/>
</svg>
