<svg width="30" height="30" viewBox="0 0 30 30" fill="none" xmlns="http://www.w3.org/2000/svg">
<path d="M29.7756 19.7756L29.7806 19.7744L27.7306 11.1375C27.695 10.9456 27.65 10.7588 27.5975 10.5744L27.5787 10.4981C26.79 7.84189 24.3356 5.90189 21.4231 5.90189C20.11 5.90189 18.89 6.29751 17.8731 6.97314H12.125C11.1087 6.29751 9.88875 5.90189 8.5775 5.90189C5.3775 5.90189 2.73125 8.24564 2.2425 11.3063H2.2375L0.139998 20.04C0.113748 20.14 0.0862476 20.2388 0.0687476 20.34L0.0493726 20.4206L0.0593726 20.4306C0.0374976 20.5819 0.0131226 20.7306 0.0131226 20.8869C0.0131226 22.6619 1.45062 24.0988 3.22437 24.0988C4.03125 24.0988 4.75937 23.7925 5.32 23.2994L5.32062 23.3019L10.975 18.6581H19.03L24.5244 23.1356C24.6831 23.2969 24.8612 23.4419 25.0531 23.5675L25.15 23.6456V23.6263C25.6262 23.9156 26.1737 24.0988 26.7731 24.0988C28.5481 24.0988 29.9869 22.6619 29.9869 20.8869C29.9869 20.4944 29.9062 20.1231 29.7756 19.7756ZM21.7312 8.21376C22.5206 8.21376 23.1575 8.85314 23.1575 9.64126C23.1575 10.4319 22.52 11.07 21.7312 11.07C20.94 11.07 20.3025 10.4319 20.3025 9.64126C20.3019 8.85376 20.94 8.21376 21.7312 8.21376ZM12.6031 12.455C12.6031 13.2444 11.965 13.8838 11.1756 13.8838H9.74625V15.3113C9.74625 16.0994 9.10812 16.7394 8.31875 16.7394C7.52875 16.7394 6.88937 16.1 6.88937 15.3113V13.8838H5.46125C4.67125 13.8838 4.0325 13.2444 4.0325 12.455C4.0325 11.6656 4.67125 11.0263 5.46125 11.0263H6.88875V9.59876C6.88875 8.80876 7.5275 8.17001 8.31812 8.17001C9.1075 8.17001 9.74562 8.80876 9.74562 9.59876V11.0263H11.175C11.9644 11.0263 12.6031 11.6663 12.6031 12.455ZM18.8125 13.9269C18.0231 13.9269 17.3862 13.2875 17.3862 12.4981C17.3862 11.7088 18.0237 11.0694 18.8125 11.0694C19.6037 11.0694 20.2406 11.7088 20.2406 12.4981C20.2406 13.2875 19.6031 13.9269 18.8125 13.9269ZM21.7312 16.7838C20.94 16.7838 20.3025 16.1444 20.3025 15.3544C20.3025 14.5663 20.9406 13.9269 21.7312 13.9269C22.5206 13.9269 23.1575 14.5663 23.1575 15.3544C23.1575 16.1438 22.52 16.7838 21.7312 16.7838ZM24.5862 13.9269C23.7969 13.9269 23.1575 13.2875 23.1575 12.4981C23.1575 11.7088 23.7969 11.0694 24.5862 11.0694C25.3781 11.0694 26.015 11.7088 26.015 12.4981C26.015 13.2875 25.3775 13.9269 24.5862 13.9269Z" fill="#AFFF00"/>
</svg>
